<svg xmlns="http://www.w3.org/2000/svg" viewBox="0 0 100 100" role="img" aria-label="Golay Immobilier">
  <defs>
    <clipPath id="golayDisc">
      <circle cx="50" cy="50" r="50"/>
    </clipPath>
  </defs>
  <circle cx="50" cy="50" r="50" fill="#15559E"/>
  <g clip-path="url(#golayDisc)" fill="#ffffff">
    <!-- 4 columns x 5 rows of "windows", clipped by the disc -->
    <rect x="7"  y="4"  width="13" height="13"/>
    <rect x="29" y="4"  width="13" height="13"/>
    <rect x="51" y="4"  width="13" height="13"/>
    <rect x="73" y="4"  width="13" height="13"/>
    <rect x="7"  y="25" width="13" height="13"/>
    <rect x="29" y="25" width="13" height="13"/>
    <rect x="51" y="25" width="13" height="13"/>
    <rect x="73" y="25" width="13" height="13"/>
    <rect x="7"  y="46" width="13" height="13"/>
    <rect x="29" y="46" width="13" height="13"/>
    <rect x="51" y="46" width="13" height="13"/>
    <rect x="73" y="46" width="13" height="13"/>
    <rect x="7"  y="67" width="13" height="13"/>
    <rect x="29" y="67" width="13" height="13"/>
    <rect x="51" y="67" width="13" height="13"/>
    <rect x="73" y="67" width="13" height="13"/>
    <rect x="7"  y="88" width="13" height="13"/>
    <rect x="29" y="88" width="13" height="13"/>
    <rect x="51" y="88" width="13" height="13"/>
    <rect x="73" y="88" width="13" height="13"/>
  </g>
</svg>
